<svg xmlns="http://www.w3.org/2000/svg" xmlns:xlink="http://www.w3.org/1999/xlink" width="537.973" height="518.008" viewBox="0 0 537.973 518.008"><defs><style>.a{fill:none;}.b{clip-path:url(#a);}.c{fill:#1c298d;}.d{fill:#14287d;}.e{fill:#0d276e;}.f{fill:#1f2e9d;}.g{fill:#3c0eab;}.h{fill:#7216d0;}.i{fill:#1d2b6c;}.j{fill:#1f2da5;}.k{fill:#19226c;}.l{fill:#1f4ed2;}.m{fill:#272eab;}.n{fill:#8b19d9;}.o{fill:#19226b;}.p{fill:#232ead;}.q{fill:#19216b;}.r{fill:#1e2e9d;}.s{fill:#1c288c;}.t{fill:#19216c;}.u{fill:#222eae;}.v{fill:#1f2d81;}.w{fill:#fff;}.x{fill:#1e2d82;}.y{fill:#1f2fa0;}.z{fill:#222fae;}.aa{fill:#dfe7f5;}.ab{fill:#21309e;}.ac{fill:#222ead;}.ad{fill:#549ffe;}.ae{fill:#065c9e;}.af{fill:#7ea8c4;}</style><clipPath id="a"><path class="a" d="M1815.91,352.194c65.908,58.215,75.75,148.713,211.733,133.3,108.5-12.3,171.23-121.257,165.341-250.186-7.018-153.64-176.644-258.027-335.842-214.59C1713.218,59.985,1648.6,120.223,1655.954,205.04S1751.454,295.262,1815.91,352.194Z"/></clipPath></defs><g transform="translate(-134 -152)"><g transform="translate(-1521.392 182.776)"><g class="b"><rect class="c" width="800" height="600" transform="translate(1527.954 -77.008)"/><path class="d" d="M1889.79,406.669s-.258,15.913-6.917,22.86c-5.166,5.39-31.666-5.9-44-3.588s-5.144,19.132,35.767,27.972c7.25,1.566,14.9,11.673,25.233,7.006s2.667-20.706,10.334-38.353S1889.79,406.669,1889.79,406.669Z"/><path class="e" d="M1984.161,366.174s7.328,16.45-.356,22.242c-5.963,4.494-22.586-14.384-35.131-14.076s-48.275,4.446,27.158,36.907c6.813,2.932,10.911,7.708,21.858,4.756s6.744-18.494,10.4-36.746C2012.043,359.481,1984.161,366.174,1984.161,366.174Z"/><path class="f" d="M1900.137,407.355a47.306,47.306,0,0,0-10.347-.686s-.258,15.913-6.917,22.86c-5.166,5.39-31.666-5.9-44-3.588a8.251,8.251,0,0,0-3.861,1.665c-4.972,5.647,31.409,17.915,47.61,11.671C1885.977,437.984,1894.831,430.85,1900.137,407.355Z"/><path class="e" d="M1982.422,321.4s-8.821,54.754-7.222,60.535,30.538,18.147,36.226,6.78,9.623-78.512,9.623-78.512Z"/><path class="f" d="M1944.137,266.614S1888.9,397.683,1885.5,409.5c-3.245,11.281,20.9,23.366,33.51,20.027A918.081,918.081,0,0,0,1956.54,279.5Z"/><path class="d" d="M1971.126,294.66,1956.54,279.5a918.081,918.081,0,0,1-37.53,150.026,10.316,10.316,0,0,0,4.736-2.56C1936.011,414.742,1971.126,294.66,1971.126,294.66Z"/><path class="g" d="M2116.25,466.745a11.683,11.683,0,0,1,5.379-9.1c1.553-.9,2.951-.97,3.933-.365l3.671,2.118,1.327.766-.327.532a3.591,3.591,0,0,0-3.483.406,10.708,10.708,0,0,0-4.93,8.338,3.356,3.356,0,0,0,1.246,2.93l-.33.537-1.327-.766-3.668-2.12A3.573,3.573,0,0,1,2116.25,466.745Z"/><path class="h" d="M2121.37,469.7c0,3.31,2.409,4.6,5.38,2.887a11.683,11.683,0,0,0,5.379-9.1c0-3.31-2.408-4.6-5.379-2.887A11.685,11.685,0,0,0,2121.37,469.7Z"/><path class="i" d="M2065.8,411.342a11.686,11.686,0,0,1,5.379-9.1c1.553-.9,2.952-.969,3.934-.364l3.67,2.118,1.327.766-.327.532a3.589,3.589,0,0,0-3.483.406,10.708,10.708,0,0,0-4.93,8.338,3.355,3.355,0,0,0,1.246,2.93l-.33.537-1.327-.766-3.668-2.12A3.574,3.574,0,0,1,2065.8,411.342Z"/><path class="j" d="M2070.918,414.3c0,3.31,2.408,4.6,5.379,2.887a11.684,11.684,0,0,0,5.379-9.1c0-3.31-2.408-4.6-5.379-2.887A11.684,11.684,0,0,0,2070.918,414.3Z"/><path class="i" d="M1979.911,422.913a11.687,11.687,0,0,1,5.38-9.1c1.553-.9,2.951-.97,3.933-.364l3.671,2.117,1.327.766-.327.533a3.591,3.591,0,0,0-3.483.4,10.709,10.709,0,0,0-4.93,8.339,3.356,3.356,0,0,0,1.246,2.93l-.33.537-1.327-.766-3.669-2.121A3.572,3.572,0,0,1,1979.911,422.913Z"/><path class="j" d="M1985.032,425.869c0,3.31,2.409,4.6,5.38,2.887a11.684,11.684,0,0,0,5.379-9.1c0-3.31-2.408-4.6-5.379-2.887A11.685,11.685,0,0,0,1985.032,425.869Z"/><path class="j" d="M1976.247,474.318a11.687,11.687,0,0,0-5.38-9.1c-1.553-.9-2.951-.97-3.933-.364l-3.671,2.117-1.326.766.326.533a3.593,3.593,0,0,1,3.484.4,10.712,10.712,0,0,1,4.93,8.339,3.357,3.357,0,0,1-1.247,2.93l.33.537,1.327-.766,3.669-2.121A3.572,3.572,0,0,0,1976.247,474.318Z"/><path class="i" d="M1965.747,468.176c-2.971-1.715-5.38-.423-5.38,2.887a11.685,11.685,0,0,0,5.38,9.1c2.971,1.715,5.379.423,5.379-2.887A11.684,11.684,0,0,0,1965.747,468.176Z"/><path class="h" d="M2065.494,505.868a11.684,11.684,0,0,0-5.38-9.1c-1.553-.9-2.951-.97-3.933-.365l-3.671,2.118-1.326.766.326.532a3.59,3.59,0,0,1,3.484.406,10.71,10.71,0,0,1,4.93,8.338,3.357,3.357,0,0,1-1.247,2.93l.33.537,1.327-.766,3.669-2.12A3.573,3.573,0,0,0,2065.494,505.868Z"/><path class="g" d="M2054.994,499.726c-2.971-1.715-5.38-.423-5.38,2.887a11.685,11.685,0,0,0,5.38,9.1c2.971,1.715,5.379.423,5.379-2.887A11.684,11.684,0,0,0,2054.994,499.726Z"/><path class="e" d="M2133.455,456.171l.015-5.086-1.993.449.394,1.076a5.534,5.534,0,0,0-3.457-1.655l-76.837-13.207,24.228-33.912a5.53,5.53,0,0,0,.8-3.263v0l.007-5-1.931,1.143a5.58,5.58,0,0,0-8.412,1.329l-25.2,35.508L1987.3,408.219a5.579,5.579,0,0,0-5.812.123h0a5.613,5.613,0,0,0-1.307,1.169l-1.259-1.524v4.8l.011-.008a5.528,5.528,0,0,0,2.755,5.084l48.008,21.985-67.106,19.083a5.578,5.578,0,0,0-3.9,8.012h0a5.577,5.577,0,0,0,6.038,2.937l74.02-20.435,13.037,50.777a5.578,5.578,0,0,0,6.043,3.977h0a5.578,5.578,0,0,0,4.883-5.79l0,0v-4.86l-.93.759-11.6-45.488,77.184,13.24a5.578,5.578,0,0,0,5.931-4.183h0a5.549,5.549,0,0,0,.149-.958l.006.017v-.1A5.651,5.651,0,0,0,2133.455,456.171Z"/><path class="j" d="M2128.414,445.841,2051.577,428.1l24.228-29.381a5.578,5.578,0,0,0-3.586-8.348h0a5.579,5.579,0,0,0-5.949,2.555l-25.2,30.978-53.778-20.8a5.579,5.579,0,0,0-5.812.122l0,0a5.578,5.578,0,0,0,.2,9.519l48.008,17.454-67.106,23.614a5.577,5.577,0,0,0-3.9,8.011h0a5.579,5.579,0,0,0,6.038,2.937l74.02-24.966,13.037,55.307a5.577,5.577,0,0,0,6.043,3.977h0a5.577,5.577,0,0,0,4.668-7.093l-12.311-52.813,77.184,17.771a5.579,5.579,0,0,0,5.931-4.183h0A5.578,5.578,0,0,0,2128.414,445.841Z"/><path class="k" d="M2040.957,411.087c-4.347,0-7.872,1.846-7.872,4.123s3.525,4.123,7.872,4.123,7.873-1.846,7.873-4.123S2045.305,411.087,2040.957,411.087Zm0,7.356c-3.409,0-6.172-1.447-6.172-3.233s2.763-3.233,6.172-3.233,6.173,1.448,6.173,3.233S2044.366,418.443,2040.957,418.443Z"/><path class="e" d="M2040.957,419.333c-4.347,0-7.872-1.846-7.872-4.123v16.127c0,2.278,3.525,4.124,7.872,4.124s7.873-1.846,7.873-4.124V415.21C2048.83,417.487,2045.305,419.333,2040.957,419.333Z"/><path class="j" d="M2040.957,338.426c-3.447,0-6.241-1.463-6.241-3.269v80.08c0,1.8,2.794,3.269,6.241,3.269s6.241-1.464,6.241-3.269v-80.08C2047.2,336.963,2044.4,338.426,2040.957,338.426Z"/><path class="e" d="M2211.568,102.03,2082.5,27.512a18.364,18.364,0,0,0-18.36,0L1728.1,221.522h-5.462v7.844h0a8.073,8.073,0,0,0,4.074,7.074l130.324,75.243a18.36,18.36,0,0,0,18.361,0l337.42-194.81a8.071,8.071,0,0,0,4.074-7.038h0V102.03Z"/><path class="l" d="M1949.553,116.685,1928.4,128.9l-106.771,61.645a16.933,16.933,0,0,0-7.533,20.212l28.005,85,14.942,8.627a18.36,18.36,0,0,0,18.361,0l287.289-165.866-189.4-26.55A37.65,37.65,0,0,0,1949.553,116.685Z"/><path class="m" d="M2212.823,95.451,2082.5,20.208a18.359,18.359,0,0,0-18.36,0l-337.421,194.81a8.151,8.151,0,0,0,0,14.118L1842.1,295.751l-28.005-85a16.933,16.933,0,0,1,7.533-20.212L1928.4,128.9l21.154-12.213a37.65,37.65,0,0,1,23.741-4.723l189.4,26.55,50.131-28.943A8.151,8.151,0,0,0,2212.823,95.451Z"/><path class="e" d="M1722.644,229.366v87.859L1875.4,454.581v-142.9l-18.945-3.576Z"/><path class="g" d="M2153.491,245.688l-2.7,2.787-65.739-37.955a8.868,8.868,0,0,0-8.868,0l-2.873,1.659-2.061-3.12v6.079c0,.055,0,.109,0,.164v.091l.011,0a3.158,3.158,0,0,0,1.565,2.6l66.08,38.759a8.868,8.868,0,0,0,8.6.206l4.262-2.233a3.164,3.164,0,0,0,1.687-3.089h.034Z"/><path class="n" d="M2072.846,206.114l3.339-1.928a8.868,8.868,0,0,1,8.868,0l66.832,38.585a3.211,3.211,0,0,1-.115,5.625l-4.262,2.232a8.867,8.867,0,0,1-8.6-.206l-66.08-38.758A3.211,3.211,0,0,1,2072.846,206.114Z"/><path class="e" d="M2135.184,332.484l-89.268,51.539a34.235,34.235,0,0,1-34.231,0l-64.955-37.5a11.885,11.885,0,0,1,0-20.586l88.939-51.349a34.89,34.89,0,0,1,34.891,0l64.624,37.311A11.886,11.886,0,0,1,2135.184,332.484Z"/><rect class="o" width="12.807" height="19.258" transform="translate(1940.795 317.225)"/><rect class="e" width="12.807" height="19.257" transform="translate(2128.296 302.715)"/><path class="p" d="M2135.184,313.766,2045.916,365.3a34.23,34.23,0,0,1-34.231,0l-64.955-37.5a11.886,11.886,0,0,1,0-20.587l88.939-51.349a34.894,34.894,0,0,1,34.891,0l64.624,37.311A11.886,11.886,0,0,1,2135.184,313.766Z"/><path class="q" d="M1993.985,279.853c-2.1-12.151-1.94-26.9-.566-31.444,7.607-25.148,37.274-5.18,37.274-5.18l67.463,47-40,22.116-54-38.317Z"/><path class="r" d="M2113.746,281.014l-46.978,29.447c-9.748-6.875-53.507-37.683-68.831-47.539-11.688-7.518-42.068-19.074-53.8,3.692-.774,1.5-.775,5.442-.36,10.444.009.108.02.222.03.332,8.551-11.5,12.421-16.679,19.084-10.776,7.4,6.555,49.4,69.3,73.649,73.555s68.509-13.837,81.383-36.008h0C2118.073,294.849,2113.746,281.014,2113.746,281.014Z"/><path class="e" d="M2036.54,340.169c-24.25-4.25-66.25-67-73.649-73.555-6.663-5.9-10.533-.72-19.084,10.776.773,9.033,2.85,21.363,4.185,29.1l5.61-3.773,62.018,39.807c15.413,10.318,28.094,11.295,39.188,7.492s55.536-24.75,62.2-40.375a15.032,15.032,0,0,0,.918-5.478h0C2105.049,326.332,2060.79,344.419,2036.54,340.169Z"/><path class="s" d="M1957.379,303.043V346.5a5.848,5.848,0,0,0,8.771,5.064l2.157-1.246V355.5l-1.307.754a9.374,9.374,0,0,1-14.062-8.119V305.608Z"/><path class="s" d="M1966.343,361.288l-9.091-5.26-4.314-50.42,8.686,5.015Z"/><path class="s" d="M1976.993,355.334l-8.686-5.015-2.562,1.469,1.867,5.737a47.8,47.8,0,0,0,5.174,1.381C1972.98,358.75,1976.993,355.334,1976.993,355.334Z"/><path class="o" d="M1966.065,308.058v43.457a5.847,5.847,0,0,0,8.771,5.064l2.157-1.245v5.182l-1.307.754a9.375,9.375,0,0,1-14.063-8.119V310.622Z"/><path class="t" d="M2006,322.925l-2.7,2.786-65.739-37.954a8.868,8.868,0,0,0-8.868,0l-2.873,1.658-2.061-3.12v6.079c0,.056,0,.11,0,.165v.091l.011,0a3.159,3.159,0,0,0,1.565,2.6l66.08,38.758a8.868,8.868,0,0,0,8.6.206l4.262-2.232a3.165,3.165,0,0,0,1.687-3.09H2006Z"/><path class="l" d="M1925.352,283.351l3.339-1.929a8.868,8.868,0,0,1,8.868,0l66.832,38.586a3.21,3.21,0,0,1-.115,5.624l-4.262,2.233a8.867,8.867,0,0,1-8.6-.206l-66.08-38.759A3.21,3.21,0,0,1,1925.352,283.351Z"/><path class="k" d="M2007.043,163.652v-3.8l-.821,1.7a3.153,3.153,0,0,0-.769-.637l-38.99-22.511a9.959,9.959,0,0,0-9.959,0l-114.467,66.088a3.134,3.134,0,0,0-.614.474c-.544-.852-.974-1.52-.974-1.52l.007,3.732c0,.045,0,.089,0,.134v.134l.017.007a3.125,3.125,0,0,0,1.563,2.543l39.322,22.7a9.3,9.3,0,0,0,9.3,0l114.795-66.277a3.145,3.145,0,0,0,1.587-2.773Z"/><path class="c" d="M2005.454,162.591l-114.795,66.277a9.3,9.3,0,0,1-9.3,0l-39.322-22.7a3.178,3.178,0,0,1,0-5.505l114.467-66.087a9.959,9.959,0,0,1,9.959,0l38.99,22.511A3.178,3.178,0,0,1,2005.454,162.591Z"/><path class="u" d="M2002.525,161.126l-20.688,11.944a4.523,4.523,0,0,1-4.07-.169l-30.128-17.394c-1.2-.7-1.335-1.747-.292-2.35l20.688-11.943a4.523,4.523,0,0,1,4.07.168l30.127,17.394C2003.437,159.472,2003.568,160.524,2002.525,161.126Z"/><path class="u" d="M1963.387,169.468l-13.218,7.631a4.523,4.523,0,0,1-4.07-.169l-17.783-10.266c-1.2-.7-1.335-1.748-.292-2.35l13.218-7.632a4.526,4.526,0,0,1,4.07.169l17.782,10.267C1964.3,167.813,1964.43,168.865,1963.387,169.468Z"/><path class="u" d="M1956.409,187.751l-68.39,39.485a4.523,4.523,0,0,1-4.07-.169l-30.128-17.394c-1.2-.7-1.335-1.747-.292-2.35l68.39-39.484a4.523,4.523,0,0,1,4.07.168l30.127,17.394C1957.321,186.1,1957.452,187.149,1956.409,187.751Z"/><path class="u" d="M1964.054,139.29,1849.549,205.4a4.523,4.523,0,0,1-4.07-.168h0c-1.2-.7-1.336-1.748-.293-2.35l114.506-66.11a4.523,4.523,0,0,1,4.07.169h0C1964.967,137.635,1965.1,138.687,1964.054,139.29Z"/><path class="u" d="M1965.243,174.445l-1.016-.587a4.174,4.174,0,0,0-3.753-.156l-2.97,1.715c-.962.556-.841,1.526.269,2.167l1.017.587c1.11.641,1.231,1.611.269,2.167l-1.788,1.032c-.961.555-.841,1.525.27,2.166l1.073.62a4.17,4.17,0,0,0,3.753.155l13.512-7.8c.962-.555.841-1.525-.269-2.167l-1.073-.619a4.173,4.173,0,0,0-3.753-.156L1969,174.6A4.17,4.17,0,0,1,1965.243,174.445Z"/><path class="v" d="M2027.245,155.014s-29.934.125-44.684-5.375-17.032-4.242-19.675-3.117c-2.728,1.16-15.838,11.682-15.578,13.242.625,3.75,6.447,0,11.853-3.815s9.335.219,10.376,1.33-2.12,1.955-3.87,2.538a39.193,39.193,0,0,1-6.588.947c-3.9.375-2.6,2.565,1.792,3.75,4.075,1.1,11.138.655,16.121-.375,3.265-.675,31.254,3.375,31.254,3.375Z"/><path class="w" d="M1969.625,157.4c.709,1.05-2.273,1.855-3.958,2.416a39.207,39.207,0,0,1-6.588.947c-2.471.238-2.849,1.206-1.677,2.185,2.638-.12,11.029-.6,13.075-1.967C1972.294,159.771,1970.6,158.15,1969.625,157.4Z"/><path class="w" d="M1982.561,149.639c-14.75-5.5-17.032-4.242-19.675-3.117-2.728,1.16-15.838,11.682-15.578,13.242a2.142,2.142,0,0,0,.34.872c4.289-3.923,15.219-13.4,19.725-12.471,5.667,1.171,15.667,5.409,22.334,6.165,6.026.683,20.936,3.745,32.609,3.927l4.929-3.243S1997.311,155.139,1982.561,149.639Z"/><path class="v" d="M1899.719,214.39c1.007,1.8,4.26,4.2,5.214,6.374,5.251,11.991,19.412,48.544,30.014,55,12.53,7.633,44.138-20.036,60.99-30.705,19.349-12.25,30.552-34.777,30.552-34.777l-27.463-37.214s-8.614,16.835-19.115,33.475c-5.06,8.019-36.41,41.028-36.41,41.028s-18.874-14.614-24.765-31.52c-1.048-3.007.541-8.369,2.656-12.459s3.8-5.808,4.487-7.992c.312-.983.722-5.438-4.017-.935-3.18,3.021-4.061,3.434-4.893,3.159-2.941-.973-1.266-3.686-6.473-8.75a26.61,26.61,0,0,0-10-6.625c-.7-.316-3.292-.5-2.464,1.823.723,2.033,6.727,5.364,5.735,6.45-.862.944-14.268-2.646-14.268-2.646a2.174,2.174,0,0,0-2.255,1.011l-1.184,1.953a4.47,4.47,0,0,0,.169,4.27c2.019,2.82,8.42,6.377,10.308,9.286C1897.939,206.757,1898.46,212.145,1899.719,214.39Z"/><path class="w" d="M1900.227,183.763a34.293,34.293,0,0,1,10.094,8.625c2.368,3.229,2.763,6.206,4.513,7.531.869.659,3.145.6,4.362-.09,1.169-.663,4.509-4.955,6.85-5.661-.114-2.159-1.57-1.983-4.184.5-3.18,3.021-4.061,3.434-4.893,3.159-2.941-.973-1.266-3.686-6.473-8.75a26.61,26.61,0,0,0-10-6.625c-.6-.272-2.6-.443-2.62.994A3.322,3.322,0,0,1,1900.227,183.763Z"/><path class="w" d="M1917.977,219.732c.431,2.687,21.8,35.605,26.4,33.5,1.584-.726,30.431-32.618,39.042-44.185,4.741-6.368,14.71-24.494,18.5-31.467a.616.616,0,0,0-.052-.665l-2.234-3.027a.625.625,0,0,0-1.061.076c-1.915,3.682-9.58,18.206-18.654,32.585-4.726,7.489-32.384,36.777-36.017,40.613a.617.617,0,0,1-.843.057c-2.9-2.337-18.964-15.8-24.315-31.162a8.368,8.368,0,0,1-.254-3.562A28.572,28.572,0,0,0,1917.977,219.732Z"/><path class="w" d="M1902.5,192.9c.6-.038,1.933-1.323,1.367-2.462a.419.419,0,0,1-.025.181.411.411,0,0,1-.073.108c-.862.944-14.268-2.646-14.268-2.646a2.174,2.174,0,0,0-2.255,1.011l-.226.373C1889.213,190.163,1898.793,193.136,1902.5,192.9Z"/><path class="x" d="M2064.9,132.175a13.531,13.531,0,0,1-5.36-.247c-4.441-1.139-4.21-5.487-4.331-8.372-.126-3.006,1.911-7.838,2.311-9,5.711-16.574,12.668-77.811-50.311-54.5-9.167,3.393-18.17,11.917-14.3,36.387,1.076,6.808,6.981,10.857,5.461,16.311-1.532,5.5,6.966,26.122,18.884,30.474,2.784,1.017,7.866-.157,9.241,1.122.517.481,2.283,2.469.382,5.539a27.289,27.289,0,0,1-3.486,4.441c4.877-.626,18.113-2.529,23.569-5.358C2053.048,145.812,2062.6,138.169,2064.9,132.175Z"/><path class="w" d="M2004.216,125.294c-3.2-7.875-1.177-9.439-.214-12.289,1.494-4.419-6.282-4.562-11.7-21.262.148,1.5.345,3.061.6,4.7,1.076,6.808,6.981,10.857,5.461,16.311-1.532,5.5,6.966,26.122,18.884,30.474a13.352,13.352,0,0,0,4.292.465h0C2018.915,142.468,2007.415,133.169,2004.216,125.294Z"/><path class="w" d="M2025.267,143.843a2.446,2.446,0,0,1,1.222.507c.517.481,2.283,2.469.382,5.539a27.289,27.289,0,0,1-3.486,4.441c.54-.069,1.2-.157,1.922-.257,1.474-1.816,6.1-7.667,5.754-9.07C2030.687,143.508,2026.195,143.773,2025.267,143.843Z"/><path class="y" d="M2102.037,147.619c-4-7.385-14.111-23.238-23.329-20.828-3.5.915-8.271,4.587-13.813,5.384-2.29,5.994-11.847,13.637-17.941,16.8-5.456,2.829-18.692,4.732-23.569,5.358-7.245,7.6-17.912,11.068-21.964,15.268-15.006,15.557,5.958,70.467,11.2,105.958,1.785,12.085.528,47.138,8.325,56.025,0,0,7.353,6.571,8.566,7.334,9.146,5.748,22.863,4.755,38.4-.6s45.365-21.179,51.935-35.273C2125.111,291.761,2123.79,187.74,2102.037,147.619Z"/><path class="a" d="M2062.707,135.946c-15.171,5.657-31.595,10.973-34.269,16.348a13.347,13.347,0,0,1-.851,1.449c6.065-.911,15.094-2.555,19.367-4.771C2051.822,146.448,2058.888,141.065,2062.707,135.946Z"/><path class="w" d="M2078.708,126.791c-3.5.915-8.271,4.587-13.813,5.384a16.2,16.2,0,0,1-2.188,3.771c8.011-2.988,15.671-6.07,20.771-9.306A11.442,11.442,0,0,0,2078.708,126.791Z"/><path class="l" d="M1996.286,183.593c-.135,1.622-.191,3.33-.179,5.109.4-.952.851-2.029,1.336-3.171C1997.039,184.849,1996.65,184.2,1996.286,183.593Z"/><path class="l" d="M2016.979,225.076a275.857,275.857,0,0,0-19.536-39.545c-.485,1.142-.938,2.219-1.336,3.171.157,23.717,12.636,60.6,16.515,86.854,1.4,9.449.932,32.937,4.39,46.983C2017.9,301,2025.655,247.62,2016.979,225.076Z"/><path class="l" d="M2151.568,188.359l-14.869-8.58,0,.017a7.689,7.689,0,0,0-8.039-.126l-89.931,52.7a24.768,24.768,0,0,0-12.244,21.368v65.431a7.688,7.688,0,0,0,4.131,6.85l-.01.006,14.666,8.472-1.742-10.143-1.511-.733,86.092-50.455a24.768,24.768,0,0,0,12.244-21.368V193.835Z"/><path class="e" d="M2143.124,281.835l-89.931,52.7a7.767,7.767,0,0,1-11.7-6.7V262.407a24.765,24.765,0,0,1,12.244-21.367l89.931-52.7a7.767,7.767,0,0,1,11.694,6.7v65.431A24.767,24.767,0,0,1,2143.124,281.835Z"/><path class="e" d="M2105.953,271.636v7.836l-6.485,3.744-5.874,63.066a9.279,9.279,0,0,1-1.042-.511l-3.295-1.9v7.917l2,1.153a14.942,14.942,0,0,0,1.645.814l-.64,6.875,12.907-7.468q.426-.228.835-.483l.148-.086v-.006a14.167,14.167,0,0,0,6.591-12.051V275.554Z"/><path class="s" d="M2075.986,351.53l13.271-7.662,3.913,2.244-2.852,8.766s-7.607,2.347-7.9,2.109S2075.986,351.53,2075.986,351.53Z"/><path class="z" d="M2092.682,279.3v66.4a8.934,8.934,0,0,1-13.4,7.737l-3.295-1.9v7.917l2,1.153a14.324,14.324,0,0,0,21.485-12.4V283.216Z"/><path class="z" d="M2099.469,283.216l-6.786-3.918,13.271-7.662,6.786,3.918Z"/><path class="l" d="M2071.341,132.582a8.278,8.278,0,0,0-1.39-1.864s-13.107-.387-11.992.567a3.29,3.29,0,0,1,1.112,1.408c.629,2.113-3.432,5.618-28.693,14.351-1.415.489-2.873.989-4.424,1.512-2.513.846-11.495,11.6-11.495,11.6s3.757-.762,9.346-2.119C2041.412,153.758,2077.221,143.563,2071.341,132.582Z"/><path class="w" d="M2057.959,131.285a3.29,3.29,0,0,1,1.112,1.408c2.789-.1,10.257-.33,12.27-.111a8.278,8.278,0,0,0-1.39-1.864S2056.844,130.331,2057.959,131.285Z"/><path class="y" d="M2005.875,171.059a8.136,8.136,0,0,0-4.453-1.461c-2.385-.076-18.426,31.541-23.051,37.541s-12.208,14.023-13.375,15.625a12.188,12.188,0,0,0-2.1,7.184c-.12,11.54,10.628,27.3,15.215,27.6a20.836,20.836,0,0,0,5.348-2.746c2.667-1.917,18.827-10.136,23.015-13.529C2026.962,224.68,2018.7,179.915,2005.875,171.059Z"/><path class="l" d="M1971.183,215.76c.373-2.281-6.662,6.577-7.29,7.439-7.987,10.954,7.8,36.044,13.731,36.436a21.807,21.807,0,0,0,5.6-2.876c.651-.468,8.7-4.479,6.771-5.566C1971.707,240.862,1970.672,218.887,1971.183,215.76Z"/><path class="w" d="M2010.854,57.939h-.006c0,.029,0,.055,0,.083h0S2010.85,57.992,2010.854,57.939Z"/><path class="aa" d="M2011.935,107.634c.177-.782,3.117.825,3.536,3.2a8.5,8.5,0,0,1-.611,5.3c-1.112,2.464-1.231.809-.939-1.108s.189-4.419-.957-5.252S2011.782,108.314,2011.935,107.634Z"/><path class="w" d="M2025.146,148.757c-4.6.971-20.735,17.081-24.688,20.84s-17.462,31.542-22.087,37.542c-1.951,2.53-4.425,5.418-6.725,8.034a1.432,1.432,0,0,0-.6-.21c-2.083-.25-5.625,5.042-7.833,8.5s-2.256,11.854-1.245,10.948c1.314-1.177.632-1.271,3.783-6.4,1.231-2,3.649-6.177,5.753-5.827,7.9-7.151,10.3-9.958,15.776-17.964,7.384-10.8,13.433-28.448,18.257-33.39,2.529-2.589,14.005-6.7,17.853-10.2,2.287-2.077,7.695-9.112,7.695-15.425C2031.08,145.211,2028.125,148.128,2025.146,148.757Z"/><path class="e" d="M1990.305,80.384c.127,4.373,2.413,11.5,6.644,15.25s8.029,8.173,10.3,10.5c2.973,3.044,7.1-10.842,12.556-.081,3.24,6.384-2.831,14.666-4.5,16.5s-13,24.036,0,36.148,19.062,13.529,12.031,23.44,1.161,27.385,14.161,31.337,13.026,9.644,13.026,9.644c13.178-7.723,29.095-5.1,40.027-10.71,18.682-9.58,26.234-17.939,27.884-26.262,3.565-17.984-9.252-38.819-14.169-47.693-4.8-8.653-26.223-15.026-27.271-27.772-1.5-18.251-.139-20.3-3.889-33.554s-18.467-29.912-41.967-29.412-23.442,8.852-23.442,8.852S1989.68,58.822,1990.305,80.384Z"/><path class="w" d="M2001.368,65.134c9.544-5.923,10.3-5.368,10.327-8.565-.054.006-22.014,2.279-21.39,23.815.127,4.373,2.413,11.5,6.644,15.25s8.029,8.173,10.3,10.5c.872.892,1.843.326,2.918-.644l-2.4-1.771C1991.646,91.967,1991.665,71.156,2001.368,65.134Z"/><path class="w" d="M2016.142,152.042c-5.353-5.232-1.2-25.058,0-30.5-.33.429-.618.774-.832,1.009-1.667,1.833-13.446,23.954-.446,36.066,1.1,1.028,4.121,3.469,5.121,4.354C2019.986,162.962,2024.687,160.393,2016.142,152.042Z"/></g></g><g transform="translate(-1521.392 182.776)"><path class="u" d="M1910.8,153.782l-32.478,18.751a11.049,11.049,0,0,1-11.047,0l-8.877-5.125a15.52,15.52,0,0,1-2.485-1.783h0v4.615c.159.1.313.2.476.3l10.887,6.286a11.049,11.049,0,0,0,11.047,0l32.478-18.751a4.21,4.21,0,0,0,2.124-3.68l-.027-3.85A4.192,4.192,0,0,1,1910.8,153.782Z"/><path class="ab" d="M1855.915,165.625a15.572,15.572,0,0,1-5.3-11.705V125l-3.345,1.757v27.984a18.235,18.235,0,0,0,8.646,15.5v-4.615Z"/><path class="c" d="M1912.892,149.561h0a4.2,4.2,0,0,0-2.09-3.138l-8.027-4.634a15.578,15.578,0,0,1-2.486-1.783h0l-2.52,1.455-41.854,24.164a15.52,15.52,0,0,0,2.485,1.783l8.877,5.125a11.049,11.049,0,0,0,11.047,0l32.478-18.751a4.192,4.192,0,0,0,2.1-3.239Z"/><path class="i" d="M1900.289,140.005a15.575,15.575,0,0,1-5.3-11.7V108.173l-.693-4.16-21.154,9.148L1850.613,125V153.92a15.572,15.572,0,0,0,5.3,11.705l41.854-24.164,2.52-1.455Z"/><path class="ac" d="M1938.621-24.058l5.106-3.038-5.944-3.432v0a1.706,1.706,0,0,0-1.752-.019L1784.384,57.01a3.756,3.756,0,0,0-1.877,3.252V173.125a1.708,1.708,0,0,0,.759,1.423l-.011.006.078.045c.031.019.062.036.094.053l5.983,3.456-.128-5.882L1938.621,86Z"/><path class="i" d="M1942.645,90.555l-151.577,87.513a1.739,1.739,0,0,1-2.609-1.506V63.7a3.755,3.755,0,0,1,1.878-3.251l151.647-87.554a1.727,1.727,0,0,1,2.589,1.5V87.216A3.855,3.855,0,0,1,1942.645,90.555Z"/><path class="m" d="M1939.108,87.684l-145.184,83.822V63.289l145.184-83.822Z"/><path class="h" d="M1912.892,149.56h0Z"/><path class="g" d="M1912.892,149.561l.007.982A4.359,4.359,0,0,0,1912.892,149.561Z"/><g transform="translate(1821.392 17.201)"><path class="w" d="M399.762,114.277l-6.482,3.742V119.9l6.482-3.742Z" transform="translate(-373.32 -11.338)"/><path class="w" d="M427.813,126.039l-14.16,8.175V136.1l14.16-8.175Z" transform="translate(-383.95 -33.158)"/><path class="w" d="M406.285,122.27l-13.005,7.508v1.883l13.005-7.508Z" transform="translate(-373.32 -26.921)"/><path class="ad" d="M451.237,141.907l-23.944,13.824v1.883l23.944-13.824Z" transform="translate(-391.066 -62.264)"/><path class="w" d="M406.285,130.264l-13.005,7.508v1.883l13.005-7.508Z" transform="translate(-373.32 -38.737)"/><path class="ae" d="M434.929,149.9l-7.637,4.409v1.883l7.637-4.409Z" transform="translate(-391.066 -64.666)"/><path class="af" d="M491.813,174.749l-7.636,4.409v1.883l7.636-4.409Z" transform="translate(-420.745 -101.397)"/><path class="ae" d="M530.8,210.421l-12.528,7.233v1.883L530.8,212.3Z" transform="translate(-438.535 -156.955)"/><path class="ad" d="M515.681,212.509l-7.636,4.409V218.8l7.636-4.409Z" transform="translate(-433.198 -157.217)"/><path class="w" d="M399.762,138.258,393.28,142v1.883l6.482-3.742Z" transform="translate(-373.32 -46.788)"/><path class="ad" d="M460.428,150.02l-46.775,27v1.883l46.775-27Z" transform="translate(-383.95 -87.438)"/><path class="w" d="M399.762,146.251l-6.482,3.742v1.883l6.482-3.742Z" transform="translate(-373.32 -58.604)"/><path class="w" d="M455.536,158.013l-41.882,24.18v1.883l41.882-24.18Z" transform="translate(-383.95 -96.43)"/><path class="w" d="M491.961,163.057l-41.882,24.18v1.883l41.882-24.18Z" transform="translate(-402.955 -103.885)"/><path class="w" d="M406.285,154.245l-13.005,7.508v1.883l13.005-7.508Z" transform="translate(-373.32 -74.187)"/><path class="w" d="M451.236,173.881l-23.944,13.824v1.883l23.944-13.824Z" transform="translate(-391.066 -109.53)"/><path class="af" d="M384.072,108.042l-1.591.918v1.883l1.591-.918Z" transform="translate(-367.686 0.702)"/><path class="af" d="M384.072,116.036l-1.591.918v1.883l1.591-.918Z" transform="translate(-367.686 -11.115)"/><path class="af" d="M384.072,124.03l-1.591.919v1.883l1.591-.919Z" transform="translate(-367.686 -22.931)"/><path class="af" d="M384.072,132.023l-1.591.919v1.883l1.591-.919Z" transform="translate(-367.686 -34.748)"/><path class="af" d="M384.072,140.017l-1.591.918v1.883l1.591-.919Z" transform="translate(-367.686 -46.564)"/><path class="af" d="M384.072,148.01l-1.591.919v1.883l1.591-.919Z" transform="translate(-367.686 -58.381)"/><path class="w" d="M406.581,169.5l-6.482,3.742v1.883l6.482-3.742Z" transform="translate(-376.878 -92.974)"/><path class="w" d="M434.632,181.263l-14.16,8.175v1.883l14.16-8.175Z" transform="translate(-387.508 -114.794)"/><path class="w" d="M406.581,177.495l-6.482,3.742v1.883l6.482-3.742Z" transform="translate(-376.878 -104.791)"/><path class="af" d="M450.94,189.257l-30.467,17.59v1.883l30.467-17.59Z" transform="translate(-387.508 -136.026)"/><path class="w" d="M406.581,185.488l-6.482,3.742v1.883l6.482-3.742Z" transform="translate(-376.878 -116.607)"/><path class="ad" d="M467.247,197.251l-46.775,27v1.883l46.775-27Z" transform="translate(-387.508 -157.257)"/><path class="w" d="M406.581,193.482l-6.482,3.742v1.883l6.482-3.742Z" transform="translate(-376.878 -128.424)"/><path class="w" d="M450.939,205.244l-30.467,17.59v1.883l30.467-17.59Z" transform="translate(-387.508 -159.659)"/><path class="w" d="M406.581,201.475l-6.482,3.742V207.1l6.482-3.742Z" transform="translate(-376.878 -140.24)"/><path class="ad" d="M441.155,213.238l-20.683,11.941v1.883l20.683-11.941Z" transform="translate(-387.508 -165.827)"/><path class="w" d="M406.581,209.465l-6.482,3.742v1.883l6.482-3.742Z" transform="translate(-376.878 -152.051)"/><path class="w" d="M429.74,221.227l-9.268,5.351v1.883l9.268-5.351Z" transform="translate(-387.507 -171.047)"/><path class="af" d="M493.444,206.723l-9.267,5.35v1.883l9.267-5.35Z" transform="translate(-420.745 -149.605)"/><path class="w" d="M519.639,221.846l-9.267,5.35v1.883l9.267-5.35Z" transform="translate(-434.412 -171.962)"/><path class="ae" d="M533.461,257.133l-9.267,5.35v1.883l9.267-5.35Z" transform="translate(-441.623 -224.124)"/><path class="w" d="M500.263,245.96,491,251.31v1.883l9.267-5.35Z" transform="translate(-424.303 -207.608)"/><path class="w" d="M472.985,257.518l-9.267,5.35v1.883l9.267-5.35Z" transform="translate(-410.07 -224.694)"/><path class="w" d="M541.179,312.876l-9.267,5.35v1.883l9.267-5.35Z" transform="translate(-445.65 -306.528)"/><path class="ad" d="M524.13,311.027l-9.267,5.35v1.883l9.267-5.35Z" transform="translate(-436.755 -303.794)"/><path class="w" d="M507.081,309.174l-9.267,5.35v1.883l9.267-5.35Z" transform="translate(-427.86 -301.055)"/><path class="af" d="M472.984,297.482l-9.267,5.35v1.883l9.267-5.35Z" transform="translate(-410.07 -283.771)"/><path class="ad" d="M499.18,312.606l-9.267,5.35v1.883l9.267-5.35Z" transform="translate(-423.738 -306.128)"/><path class="ae" d="M550.326,326.151l-9.267,5.35v1.883l9.267-5.35Z" transform="translate(-450.422 -326.151)"/><path class="ad" d="M500.263,229.973,491,235.323v1.883l9.267-5.35Z" transform="translate(-424.303 -183.975)"/><path class="w" d="M526.458,245.1l-9.267,5.35v1.883l9.267-5.35Z" transform="translate(-437.97 -206.331)"/><path class="af" d="M384.072,159.33l-1.591.918v1.883l1.591-.919Z" transform="translate(-367.686 -75.114)"/><path class="af" d="M384.072,167.323l-1.591.918v1.883l1.591-.918Z" transform="translate(-367.686 -86.931)"/><path class="af" d="M384.072,175.317l-1.591.919v1.883l1.591-.918Z" transform="translate(-367.686 -98.747)"/><path class="af" d="M384.072,183.31l-1.591.919v1.883l1.591-.918Z" transform="translate(-367.686 -110.564)"/><path class="af" d="M384.071,191.3l-1.591.918v1.883l1.591-.919Z" transform="translate(-367.686 -122.38)"/><path class="af" d="M384.071,199.294l-1.591.919V202.1l1.591-.919Z" transform="translate(-367.686 -134.191)"/><path class="w" d="M413.4,224.725l-6.482,3.742v1.883l6.482-3.742Z" transform="translate(-380.436 -174.61)"/><path class="ad" d="M441.451,236.488l-14.16,8.175v1.883l14.16-8.175Z" transform="translate(-391.065 -196.43)"/><path class="w" d="M413.4,232.719l-6.482,3.742v1.883L413.4,234.6Z" transform="translate(-380.436 -186.427)"/><path class="ad" d="M457.758,244.481l-30.467,17.59v1.883l30.467-17.59Z" transform="translate(-391.065 -217.662)"/><path class="w" d="M413.4,240.713l-6.482,3.742v1.883L413.4,242.6Z" transform="translate(-380.436 -198.243)"/><path class="w" d="M474.066,252.475l-46.775,27v1.883l46.775-27Z" transform="translate(-391.065 -238.893)"/><path class="w" d="M413.4,248.706l-6.482,3.742v1.883l6.482-3.742Z" transform="translate(-380.436 -210.06)"/><path class="af" d="M465.912,260.469l-38.621,22.3v1.883l38.621-22.3Z" transform="translate(-391.065 -246.002)"/><path class="af" d="M488.7,147.069l-38.62,22.3v1.883l38.62-22.3Z" transform="translate(-402.955 -78.368)"/><path class="w" d="M413.4,256.7l-6.482,3.742v1.883l6.482-3.742Z" transform="translate(-380.436 -221.871)"/><path class="ae" d="M457.758,268.458l-30.467,17.59v1.883l30.467-17.59Z" transform="translate(-391.065 -253.106)"/><path class="w" d="M501,242.142l-30.466,17.589v1.883L501,244.025Z" transform="translate(-413.629 -214.203)"/><path class="w" d="M413.4,264.689l-6.482,3.742v1.883l6.482-3.742Z" transform="translate(-380.435 -233.687)"/><path class="w" d="M441.451,276.452l-14.16,8.175v1.883l14.16-8.175Z" transform="translate(-391.065 -255.508)"/><path class="af" d="M384.071,210.617l-1.591.919v1.883l1.591-.918Z" transform="translate(-367.686 -150.93)"/><path class="af" d="M384.071,218.61l-1.591.918v1.883l1.591-.919Z" transform="translate(-367.686 -162.747)"/><path class="af" d="M384.071,226.6l-1.591.918v1.883l1.591-.918Z" transform="translate(-367.686 -174.563)"/><path class="af" d="M384.071,234.6l-1.591.919V237.4l1.591-.919Z" transform="translate(-367.686 -186.38)"/><path class="af" d="M384.071,242.587l-1.591.918v1.883l1.591-.918Z" transform="translate(-367.686 -198.191)"/><path class="af" d="M384.071,250.581l-1.591.919v1.883l1.591-.919Z" transform="translate(-367.685 -210.007)"/><path class="af" d="M354.858,92.152l-3.311,1.911v3.823l3.311-1.911Z" transform="translate(-351.547 21.259)"/><path class="af" d="M368.118,100.484l-5.655,3.265v1.883l5.655-3.265Z" transform="translate(-357.242 9.529)"/><path class="af" d="M354.857,108.138l-3.311,1.911v3.823l3.311-1.911Z" transform="translate(-351.547 -2.373)"/><path class="af" d="M368.117,116.467l-5.655,3.265v1.883l5.655-3.265Z" transform="translate(-357.242 -14.098)"/><path class="af" d="M354.857,124.125l-3.311,1.911v3.823l3.311-1.911Z" transform="translate(-351.546 -26.004)"/><path class="af" d="M368.117,132.454l-5.655,3.265V137.6l5.655-3.265Z" transform="translate(-357.242 -37.731)"/><path class="af" d="M354.857,140.111l-3.311,1.911v3.823l3.311-1.911Z" transform="translate(-351.546 -49.636)"/><path class="af" d="M368.117,148.441l-5.655,3.265v1.883l5.655-3.265Z" transform="translate(-357.242 -61.364)"/><path class="af" d="M354.857,156.1l-3.311,1.911v3.823l3.311-1.911Z" transform="translate(-351.546 -73.268)"/><path class="af" d="M368.117,164.428l-5.655,3.265v1.883l5.655-3.265Z" transform="translate(-357.241 -84.997)"/></g></g></g></svg>